PathFileType	4	(X/Y/Z)	C:\Users\WrightLab\Desktop\Jo\P4V12.trc
DataRate	CameraRate	NumFrames	NumMarkers	Units	OrigDataRate	OrigDataStartFrame	OrigNumFrames
100.00	100.00	       13	19	mm	100.00	377	       602
Frame#	Time	Headset_Front			Headset_Back			Headset_Left			Headset_Right			Left_Shoulder			Right_Shoulder			Sternum			C7			Left Elbow			Right Elbow			Left Wrist			Right Wrist			Left ASIS			Right ASIS			S2			Left Knee			Right Knee			Left Ankle			Right Ankle			
		X1	Y1	Z1	X2	Y2	Z2	X3	Y3	Z3	X4	Y4	Z4	X5	Y5	Z5	X6	Y6	Z6	X7	Y7	Z7	X8	Y8	Z8	X9	Y9	Z9	X10	Y10	Z10	X11	Y11	Z11	X12	Y12	Z12	X13	Y13	Z13	X14	Y14	Z14	X15	Y15	Z15	X16	Y16	Z16	X17	Y17	Z17	X18	Y18	Z18	X19	Y19	Z19	

377	3.760	-652.39374	1556.72559	-620.70459	-665.54303	1614.07727	-472.93802							-879.44324	1510.44946	-389.91455	-583.81323	1528.16345	-336.96054	-721.40387	1446.49988	-471.25766	-736.28619	1562.29358	-329.36328	-1027.04236	1160.14404	-363.20209	-275.47070	1116.35181	-558.15485	-1029.18225	862.74658	-463.86249	-365.66626	1238.52051	-300.12048	-861.54236	1025.09827	-429.47327	-524.90729	1017.01715	-434.76050	-714.64697	1043.54602	-247.14359	-875.55280	533.93146	-443.96252	-502.88028	541.74030	-489.82822	-825.42993	38.80679	-348.51001	-616.95447	257.25122	-100.71944	
378	3.770	-652.30768	1558.36536	-629.08948	-665.18835	1615.18433	-481.90344							-880.23035	1512.07007	-401.08313	-584.46545	1529.71423	-343.92194	-720.95605	1447.86658	-479.47812	-737.54431	1562.88184	-337.78308	-1026.90332	1160.95300	-378.10083	-279.80084	1109.23169	-561.74213	-1024.49463	864.49792	-481.97302	-368.29556	1237.79980	-305.70206	-861.69855	1025.45435	-437.79895	-525.73560	1019.82776	-440.97925	-716.03766	1044.18225	-255.60997	-875.82605	533.99463	-446.27176	-499.38397	546.44812	-503.00125	-825.66669	36.11601	-354.11038	-618.12024	253.95024	-119.29527	
379	3.780	-652.09637	1559.88574	-637.53412	-664.81903	1616.68188	-490.43369							-880.85748	1513.64758	-411.56638	-585.80579	1530.69373	-351.64703	-720.69659	1448.68481	-488.61108	-738.45020	1563.92236	-346.50482	-1027.34778	1161.60718	-392.81296	-284.58109	1102.20020	-564.11774	-1018.71948	867.05005	-500.47803	-371.77423	1236.79980	-311.47513	-862.21356	1025.07788	-445.95941	-525.92346	1021.73273	-446.29355	-716.93842	1046.06738	-263.09464	-875.80981	533.63892	-449.09366	-495.81165	551.55469	-517.03625	-825.46710	36.49599	-353.44818	-621.00262	248.79091	-140.23668	
380	3.790	-651.69165	1561.62964	-646.31268	-663.03613	1617.81860	-498.62888							-880.65076	1513.99780	-421.56552	-586.37616	1531.52197	-358.65137	-720.32227	1449.84680	-496.97018	-739.53961	1564.32654	-354.66458	-1026.92773	1162.34802	-408.10910	-289.15985	1094.49976	-566.75677	-1014.07617	868.96979	-518.69305	-375.14771	1234.97815	-316.65579	-862.52844	1024.61792	-454.58456	-526.69012	1023.56219	-453.58929	-718.49695	1046.34509	-271.55930	-875.42865	533.11279	-451.56732	-492.49176	556.07294	-528.60706	-825.35992	36.75625	-353.11667	-622.13965	240.53880	-163.20479	
381	3.800	-651.25421	1563.02026	-654.35565	-805.74738	1677.98730	-568.51892							-881.19958	1515.28101	-432.63602	-586.92871	1531.60962	-365.21924	-719.77979	1450.32910	-505.42252	-740.38336	1565.20581	-363.81244	-1026.87415	1162.54712	-422.05429	-293.80783	1087.33545	-569.68805	-1008.40875	870.81720	-536.62238	-378.50458	1233.61523	-321.81958	-863.33783	1024.55066	-463.28378	-526.49219	1025.69312	-460.29877	-719.35321	1046.32275	-278.06754	-875.19061	532.64789	-453.74243	-489.20624	560.84448	-541.14178	-825.12408	37.22126	-352.34125	-623.19061	233.48363	-184.94800	
382	3.810	-650.57538	1564.44153	-662.61200	-805.41614	1678.78760	-576.85614							-880.22314	1515.48853	-443.10275	-588.17584	1531.55786	-372.92618	-718.81842	1450.21655	-513.91254	-740.86249	1565.03015	-372.04813	-1025.54517	1162.52368	-436.76294	-298.27859	1079.00269	-570.98846	-1003.44836	873.66577	-555.42383	-381.85535	1231.86523	-326.26071	-863.43121	1024.11365	-471.63416	-528.19379	1026.91528	-466.46268	-720.11523	1047.46057	-286.59839	-874.94000	532.04901	-456.32254	-484.95392	564.51917	-553.34229	-824.94415	37.60975	-351.76389	-623.29138	224.63379	-207.96384	
383	3.820	-649.53925	1566.32788	-670.89276	-804.82349	1679.94812	-585.06427							-880.89966	1515.94214	-453.63165	-588.15234	1531.32727	-380.71185	-717.98456	1450.25537	-521.77740	-741.37311	1565.61646	-380.92191	-1026.08142	1163.35510	-451.98566	-303.47620	1072.22913	-573.81091	-998.13251	875.67407	-573.34229	-384.72177	1229.53076	-331.72015	-863.64868	1023.24493	-479.54449	-528.61444	1027.89905	-472.07379	-721.78766	1047.80054	-293.43118	-874.40900	531.43060	-459.25641	-481.07043	568.53357	-563.75903	-824.77509	38.02092	-351.24084	-621.85809	215.27528	-230.82178	
384	3.830	-648.72491	1567.43054	-678.95221	-804.12140	1680.91687	-593.53699							-879.78571	1515.84387	-464.65503	-588.08417	1531.57715	-388.62689	-717.01477	1450.65210	-530.91443	-742.01434	1565.67639	-390.17841	-1025.76660	1163.59875	-466.04947	-308.02533	1063.12769	-574.94855	-992.38062	878.33936	-592.09003	-388.20483	1226.63098	-336.43579	-863.61926	1022.55225	-487.80988	-526.90442	1029.56189	-479.69656	-722.71716	1047.44617	-300.25125	-873.86401	531.47278	-462.22662	-477.72525	572.71033	-574.33423	-824.64331	38.36757	-350.84430	-620.86011	204.57509	-255.86916	
385	3.840	-647.56061	1569.06360	-687.78589	-803.44940	1681.49121	-601.06763							-880.23553	1516.07410	-474.93973	-588.32214	1531.52979	-395.78360	-715.80145	1450.69995	-540.25494	-742.82715	1565.16882	-398.06775	-1024.86682	1163.19836	-480.19040	-312.28867	1054.35498	-576.53363	-987.13232	880.66248	-610.01971	-391.46027	1224.47168	-341.53256	-863.59119	1022.21375	-496.42825	-527.55823	1029.90906	-486.21808	-723.98615	1046.52283	-309.40536	-873.37738	531.01648	-465.35760	-474.45691	575.42725	-585.47095	-824.26257	38.43385	-351.80896	-618.07977	193.58833	-280.63010	
386	3.850	-646.26990	1570.45715	-696.26746	-802.51855	1682.25562	-608.60944							-878.98901	1515.67871	-484.70383	-588.81439	1530.34729	-401.65076	-714.67578	1449.93359	-548.22345	-742.17175	1565.14099	-407.19547	-1024.10046	1163.44800	-494.74475	-316.73724	1045.66089	-578.14825	-980.92651	883.29187	-628.56342	-394.47839	1222.04297	-346.54044	-862.68414	1021.77643	-505.28616	-527.73480	1030.16785	-492.26553	-723.89294	1048.66931	-315.87430	-872.75677	530.90179	-469.51526	-471.29697	577.83136	-594.95258	-823.85046	40.40660	-348.91891	-615.47070	182.00677	-305.68451	
387	3.860	-644.96112	1571.57764	-704.23230	-801.48010	1682.86975	-617.23419							-878.68372	1515.88513	-495.99487	-587.45465	1530.61475	-410.73517	-713.20990	1449.63770	-556.45642	-742.74481	1565.12134	-415.62250	-1022.73602	1163.17078	-509.05533	-320.58469	1036.69629	-578.88226	-975.39056	886.29248	-646.97357	-397.89288	1218.56445	-351.30164	-862.17053	1021.95758	-516.57141	-527.84827	1030.53748	-500.04190	-724.11078	1048.12427	-324.81891	-872.59106	530.41235	-472.32993	-468.53772	580.74176	-604.13489	-823.78876	40.49121	-348.87286	-611.48077	171.93698	-330.79340	
388	3.870	-643.40466	1572.64404	-712.67517	-800.39514	1683.11316	-625.64996							-877.63312	1515.33276	-505.52765	-588.54169	1529.47632	-416.77759	-711.65753	1449.24255	-564.98230	-742.39972	1564.05457	-424.48032	-1021.83319	1162.67102	-523.02588	-325.05258	1027.97754	-580.08466	-969.11115	889.25867	-665.17773	-400.99146	1216.12769	-357.32941	-862.84161	1019.62079	-520.37067	-526.25446	1030.83960	-507.53580	-724.31183	1047.96924	-331.40295	-872.32471	530.24884	-475.74979	-465.59601	582.30817	-612.67249	-823.92529	40.71227	-349.56079	-608.85925	158.85492	-356.68259	
389	3.880	-641.70447	1573.58142	-720.92676	-799.23730	1683.27600	-633.12708							-876.66986	1515.03662	-516.00476	-587.23560	1528.63599	-425.08072	-710.31873	1448.01172	-572.99561	-741.70959	1563.61938	-432.69174	-1020.70587	1162.43945	-537.59259	-329.11148	1019.31659	-581.26447	-963.02063	891.98737	-683.74780	-404.02109	1213.30713	-362.22278	-862.07361	1018.94263	-529.50958	-525.83081	1031.00574	-515.26129	-724.74304	1046.98315	-340.68707	-871.60565	529.78229	-479.54660	-463.07724	583.83691	-621.48962	-823.31915	41.47720	-349.35056	-604.78607	147.37512	-383.66235	
